<?xml version="1.0" standalone="no"?>
<!DOCTYPE svg PUBLIC "-//W3C//DTD SVG 20010904//EN"
 "http://www.w3.org/TR/2001/REC-SVG-20010904/DTD/svg10.dtd">
<svg version="1.0" xmlns="http://www.w3.org/2000/svg"
 width="240.000000pt" height="240.000000pt" viewBox="0 0 240.000000 240.000000"
 preserveAspectRatio="xMidYMid meet">

<g transform="translate(0.000000,240.000000) scale(0.100000,-0.100000)"
fill="#000000" stroke="none">
<path d="M1150 2307 c-3 -3 -30 -6 -60 -8 -30 -1 -59 -5 -65 -9 -5 -4 -35 -10
-65 -14 -30 -4 -61 -13 -69 -19 -8 -7 -17 -11 -20 -10 -22 9 -176 -61 -276
-126 -84 -54 -255 -223 -311 -306 -37 -55 -104 -186 -108 -210 -1 -5 -4 -14
-8 -20 -7 -12 -25 -71 -45 -150 -77 -309 3 -662 209 -926 154 -198 327 -311
596 -394 131 -39 440 -40 557 -1 22 7 58 19 80 26 48 15 227 98 235 108 3 5
26 21 52 37 59 37 225 204 263 265 15 25 32 47 36 50 4 3 13 17 18 30 6 14 15
32 21 40 9 14 29 60 62 140 8 19 18 53 22 75 4 22 12 45 16 50 5 6 14 64 20
130 13 135 1 330 -25 400 -8 22 -14 47 -15 56 0 16 -17 58 -62 159 -61 137
-269 379 -362 421 -14 7 -26 16 -26 20 0 11 -218 118 -256 125 -19 3 -37 10
-40 15 -3 5 -15 9 -27 9 -13 0 -47 6 -77 14 -57 15 -261 32 -270 23z m195
-496 c39 -12 79 -26 90 -31 11 -5 29 -11 41 -15 11 -3 32 -17 45 -31 l24 -26
3 -451 c1 -249 5 -458 7 -466 4 -10 23 -12 93 -6 99 8 105 4 129 -64 18 -52
16 -105 -4 -124 -37 -32 -125 -57 -206 -57 -92 0 -159 28 -202 84 -27 35 -27
35 -53 18 -15 -9 -29 -19 -32 -23 -9 -10 -94 -47 -147 -63 -31 -10 -89 -16
-145 -16 -163 0 -270 58 -330 180 -21 40 -23 60 -23 180 0 145 8 175 62 247
29 37 105 88 148 99 17 4 33 11 36 16 3 4 68 13 145 18 76 6 172 13 212 16
l72 6 0 152 0 152 -37 17 c-58 27 -208 40 -318 27 -154 -17 -171 -15 -188 20
-9 16 -18 44 -22 61 -10 43 22 75 89 88 28 6 60 13 71 15 11 3 99 4 195 2 148
-3 186 -6 245 -25z"/>
<path d="M1000 1103 c-105 -22 -140 -70 -140 -193 0 -87 22 -134 75 -159 71
-34 229 -15 330 39 l50 27 3 151 3 152 -128 -1 c-71 -1 -157 -8 -193 -16z"/>
</g>
</svg>
